inDegrees=yes
name=ik_lifting_orientations
DataType=double
version=3
OpenSimVersion=4.5-2024-01-10-34fd6af
endheader
time	pelvis_tilt	pelvis_list	pelvis_rotation	pelvis_tx	pelvis_ty	pelvis_tz	hip_flexion_r	hip_adduction_r	hip_rotation_r	knee_angle_r	knee_angle_r_beta	ankle_angle_r	subtalar_angle_r	mtp_angle_r	hip_flexion_l	hip_adduction_l	hip_rotation_l	knee_angle_l	knee_angle_l_beta	ankle_angle_l	subtalar_angle_l	mtp_angle_l	lumbar_extension	lumbar_bending	lumbar_rotation	arm_flex_r	arm_add_r	arm_rot_r	elbow_flex_r	pro_sup_r	wrist_flex_r	wrist_dev_r	arm_flex_l	arm_add_l	arm_rot_l	elbow_flex_l	pro_sup_l	wrist_flex_l	wrist_dev_l
1.09	10.69684398261473	18.41850523186779	-80.93998620693394	0	0.9399999998679526	0	19.32680676509421	-7.9913064665427	0	28.27718127280406	0.4935299163937118	-4.426534366703437	0	0	19.32680676509421	-7.9913064665427	0	28.27718127280406	0.4935299163937118	-4.426534366703437	0	0	11.60385229949947	-7.663038540993922	-14.64011838974105	26.22640136982407	-31.58086167556909	11.14130038410522	30.18104821595809	50.8435295244798	0	0	0	-3.219118344822428	0	39.29059545080224	50.8435295244798	0	0
1.1	10.68547677418188	19.11079403457013	-79.57727545194129	0	0.9399999998679526	0	19.50479206304922	-8.023046947678267	0	28.52259240524233	0.4978131486758073	-4.437383693612236	0	0	19.50479206304922	-8.023046947678267	0	28.52259240524233	0.4978131486758073	-4.437383693612236	0	0	12.36296102769387	-8.447012782978261	-15.00818141248529	27.78266539515086	-30.40438973435012	11.10963903550316	33.76005085289307	50.54049954304907	0	0	0	-3.266573512978006	0	39.59252679888262	50.54049954304907	0	0
1.11	9.99538910478447	19.41147656258202	-77.15532991220903	0	0.9399999998679526	0	19.69929482023215	-8.0572709550787	0	28.79036776006966	0.5024867102732403	-4.449023764219056	0	0	19.69929482023215	-8.0572709550787	0	28.79036776006966	0.5024867102732403	-4.449023764219056	0	0	12.72268708127942	-8.78838434103068	-16.34089985500222	29.08099497965967	-29.12944059882183	10.77327582886658	37.38680003211876	50.20967601081908	0	0	0	-3.31876028366166	0	39.92216456565941	50.20967601081908	0	0
1.12	9.288051400357087	19.68709294152088	-74.72967943039906	0	0.9399999998679526	0	19.88797578247577	-8.090252518400016	0	29.04913203993567	0.5070029989434544	-4.460212430438503	0	0	19.88797578247577	-8.090252518400016	0	29.04913203993567	0.5070029989434544	-4.460212430438503	0	0	13.07577023112993	-9.138202813323312	-17.76001398799897	30.47706079813182	-27.5145462401142	10.7938650681335	41.30593547049293	49.8888272670435	0	0	0	-3.36952013840427	0	40.24186814194919	49.8888272670435	0	0
1.13	9.322841002676636	19.75303066590951	-74.72459235109123	0	0.9399999998679526	0	20.04486039047556	-8.117657288002802	0	29.26330512167107	0.51074102438888	-4.469505796385755	0	0	20.04486039047556	-8.117657288002802	0	29.26330512167107	0.51074102438888	-4.469505796385755	0	0	13.29868347401736	-9.478001563811233	-16.97146153271927	32.20523671584741	-25.78393404104279	11.024188314169	45.01936919408587	49.62199442880043	0	0	0	-3.411724116872145	0	40.50774784084474	49.62199442880043	0	0
1.14	9.361161962082576	19.82732119333937	-74.6966230575466	0	0.9399999998679526	0	20.05928784871946	-8.121060030612243	0	29.28005619868681	0.5110333858360598	-4.470755043310232	0	0	20.05928784871946	-8.121060030612243	0	29.28005619868681	0.5110333858360598	-4.470755043310232	0	0	13.54163390700776	-9.836726350138907	-16.23563613427471	34.0225497909251	-24.39563291433401	10.84134533021784	44.86455498809151	49.59654779928558	0	0	0	-3.414806308458272	0	40.53307040243401	49.59654779928558	0	0
1.15	9.323917517154003	19.93500555564352	-74.42961614525501	0	0.9399999998679526	0	20.14871669279646	-8.136621269114451	0	29.40126316144264	0.5131488464124911	-4.476019803937461	0	0	20.14871669279646	-8.136621269114451	0	29.40126316144264	0.5131488464124911	-4.476019803937461	0	0	13.74591324304242	-10.11734861020665	-15.60382942122093	35.59045564461958	-22.61756376403737	10.75477347761917	47.59771260725029	49.44437013167268	0	0	0	-3.438851525110767	0	40.68470365177727	49.44437013167268	0	0
1.16	9.422519236444311	20.04674813257337	-74.51321640282966	0	0.9399999998679526	0	20.23388178006731	-8.151409397886026	0	29.51646893035194	0.5151595663972502	-4.481018662034432	0	0	20.23388178006731	-8.151409397886026	0	29.51646893035194	0.5151595663972502	-4.481018662034432	0	0	13.95016783293287	-10.39877003036154	-14.73274671269084	37.23116188326917	-20.67034738069292	10.69481114357916	49.80698216858198	49.29945538110687	0	0	0	-3.461767607574342	0	40.82910058305762	49.29945538110687	0	0
1.17	9.45943702970777	20.01266576106559	-74.67043941202013	0	0.9399999998679526	0	20.32020944778916	-8.166453352992853	0	29.63273127136714	0.5171887270440418	-4.486108525368641	0	0	20.32020944778916	-8.166453352992853	0	29.63273127136714	0.5171887270440418	-4.486108525368641	0	0	13.99146057915759	-10.51702218552433	-14.15808776293595	39.11910703698161	-18.3590024153034	10.79086893397928	51.08717826141213	49.15248766978527	0	0	0	-3.484934440274156	0	40.97554059846567	49.15248766978527	0	0
1.18	9.533064384929588	20.01726594770544	-74.87430597421412	0	0.9399999998679526	0	20.40208064075533	-8.180647388741464	0	29.7429076967324	0.5191116684247434	-4.490901692013786	0	0	20.40208064075533	-8.180647388741464	0	29.7429076967324	0.5191116684247434	-4.490901692013786	0	0	14.16825957288835	-10.7544207527437	-13.27183700189871	40.82711334712445	-16.14059868926743	10.67003816252202	52.35181703473445	49.0131527048356	0	0	0	-3.50695828986542	0	41.11437736297522	49.0131527048356	0	0
1.19	9.561760247706353	20.1273896073424	-74.71102899009901	0	0.9399999998679526	0	20.41184112598467	-8.182911247516859	0	29.75414702395582	0.5193078316905012	-4.491726973010564	0	0	20.41184112598467	-8.182911247516859	0	29.75414702395582	0.5193078316905012	-4.491726973010564	0	0	14.36099181771154	-11.02468636892046	-12.83558018510191	42.82761509945254	-14.2169135441005	10.10330033647989	51.71700149001691	48.99602332599613	0	0	0	-3.509064479565939	0	41.13142499528371	48.99602332599613	0	0
1.2	9.75368916253421	20.20172546469674	-75.09933087775511	0	0.9399999998679526	0	20.42259522031294	-8.185404236320084	0	29.76652672210794	0.5195238981836587	-4.492635479451404	0	0	20.42259522031294	-8.185404236320084	0	29.76652672210794	0.5195238981836587	-4.492635479451404	0	0	14.55275324785218	-11.27536492342653	-11.91260464351136	44.77778803742411	-12.18501002949527	9.772260545144395	51.02583220023755	48.97715260898698	0	0	0	-3.511385233154758	0	41.15020570334392	48.97715260898698	0	0
1.21	9.848933474648382	20.31739649488697	-75.14941774793824	0	0.9399999998679526	0	20.50068966393144	-8.199034708862044	0	29.87100728202837	0.5213474279585975	-4.497246257923361	0	0	20.50068966393144	-8.199034708862044	0	29.87100728202837	0.5213474279585975	-4.497246257923361	0	0	14.7300822518799	-11.51276536337022	-11.16852326370588	46.67229145869965	-10.26862110615904	9.368888026711845	50.42695161869709	48.84414840311199	0	0	0	-3.532295652823777	0	41.28273061851669	48.84414840311199	0	0
1.22	9.930707652756974	20.41470653513471	-75.20743246614821	0	0.9399999998679526	0	20.51106163367628	-8.201427861943943	0	29.8829249427274	0.521555430376931	-4.498116617535012	0	0	20.51106163367628	-8.201427861943943	0	29.8829249427274	0.521555430376931	-4.498116617535012	0	0	14.90714258483532	-11.73491395196653	-10.11029118178889	48.68830286786159	-8.861715311486002	8.373823834220048	48.75597261433806	48.82597070474876	0	0	0	-3.534539821893302	0	41.3008220942305	48.82597070474876	0	0
1.23	9.971921054792926	20.47946149961314	-75.19905969218297	0	0.9399999998679526	0	20.58484646356109	-8.214240766789414	0	29.98161968344811	0.5232779785569096	-4.502442766705251	0	0	20.58484646356109	-8.214240766789414	0	29.98161968344811	0.5232779785569096	-4.502442766705251	0	0	15.08285218990609	-11.95634480097008	-9.34647650117925	50.58263015224534	-7.290886487756989	7.767348580791537	47.51771239803679	48.7003558088062	0	0	0	-3.554346368903744	0	41.42598636265826	48.7003558088062	0	0
1.24	9.931983682229294	20.5099979671589	-75.00230151459736	0	0.9399999998679526	0	20.59796922124838	-8.217255713790625	0	29.99666873363002	0.5235406340318818	-4.503537173478047	0	0	20.59796922124838	-8.217255713790625	0	29.99666873363002	0.5235406340318818	-4.503537173478047	0	0	15.14850009935948	-12.09661926363535	-9.007817059164703	52.77175651397427	-5.838217180614296	7.094322445252018	45.47019559038673	48.67738340264455	0	0	0	-3.557192121396075	0	41.44885035386808	48.67738340264455	0	0
